<svg xmlns="http://www.w3.org/2000/svg" viewBox="0 0 500 500"><defs><style>.cls-1{fill:none;stroke:#333;stroke-linejoin:round;stroke-width:20px;}</style></defs><title>d20</title><g id="final"><g id="outer"><path class="cls-1" d="M248.67,37.11V96.3a10.32,10.32,0,0,1-8.62,9.9L100.44,125.7c-28.75,4-31.58-4.36-6.29-18.62L233.76,28.4C242,23.78,248.67,27.7,248.67,37.11Z"/><path class="cls-1" d="M400.83,125.73,257.32,106.18a10.32,10.32,0,0,1-8.65-9.91V36.91c0-9.3,6.66-13.24,14.82-8.76L407,107.06C432.94,121.33,430.16,129.73,400.83,125.73Z"/><path class="cls-1" d="M123.89,328.29,65.77,354.61c-9.68,4.39-10.1,12.37-.93,17.74l140.41,82.22c23.88,14,29.74,7.39,13-14.67L136,331.36A10.51,10.51,0,0,0,123.89,328.29Z"/><path class="cls-1" d="M378.29,328.23l58,26.28c9.81,4.44,10.19,12.44.83,17.79L293.47,454.4c-24.64,14.08-30.41,7.38-12.81-14.88l85.66-108.39A10.53,10.53,0,0,1,378.29,328.23Z"/><path class="cls-1" d="M435,177.37,375.07,316a10.06,10.06,0,0,0,5.05,13.07L440,356.19c7.77,3.52,14.13-.58,14.13-9.11V181.33C454.17,154.75,445.54,153,435,177.37Z"/><path class="cls-1" d="M67.35,177.37,127.27,316a10.06,10.06,0,0,1-5.06,13.07L62.29,356.19c-7.77,3.52-14.12-.58-14.12-9.11V181.33C48.17,154.75,56.8,153,67.35,177.37Z"/></g><g id="middle"><path class="cls-1" d="M229.21,107.72l-168,23.46c-7.15,1-10.66,7.24-7.79,13.88L122.94,306c4.52,10.47,12.62,10.81,18,.75l98.47-184.38C244.5,112.8,239.91,106.22,229.21,107.72Z"/><path class="cls-1" d="M441.11,131.22,268.48,107.7c-10.9-1.48-15.44,5.16-10.08,14.77L361.3,307.28c5.43,9.75,13.49,9.34,17.92-.9L448.94,145.1C451.81,138.44,448.29,132.2,441.11,131.22Z"/><path class="cls-1" d="M256.68,469.86,358.36,341.2c7.05-8.91,3.51-16.2-7.84-16.2H151.3c-11.08,0-14.66,7.22-8,16L240.86,469.7C245.15,475.37,252.27,475.44,256.68,469.86Z"/></g><g id="inner"><path class="cls-1" d="M231.39,137.35,146.88,295.58c-8.64,16.18-.7,29.42,17.64,29.42H337.14c18.71,0,26.58-13.38,17.47-29.73L266.51,137C256.69,119.42,240.89,119.56,231.39,137.35Z"/></g><g id="outline"><path class="cls-1" d="M53.11,365.48l190.56,111.6a11.12,11.12,0,0,0,10,.05L449.13,365.46a11.08,11.08,0,0,0,5-8.68V138.91a11.07,11.07,0,0,0-5.19-8.76L253.54,22.68a11.16,11.16,0,0,0-9.72.05L53.26,130.13a11.08,11.08,0,0,0-5.09,8.71v218A11.1,11.1,0,0,0,53.11,365.48Z"/></g></g></svg>