<svg xmlns="http://www.w3.org/2000/svg" viewBox="0 0 679.33 324.03"><defs><style>.cls-1{fill:#ef3c23}.cls-5{fill:#333}.cls-6,.cls-8{stroke:#333;stroke-linejoin:round}.cls-6{stroke-linecap:square}.cls-6,.cls-8{fill:none}.cls-4{isolation:isolate}.cls-6{stroke-width:30px}.cls-8{stroke-width:4px}</style></defs><g id="old-d20"><path class="cls-1" d="M171.67 217.08c-2.87 16.94 11.51 36.55 27.58 39 16.87 2.57 34.65-8.48 45.18-24.22-16.28 11.31-37.16-31.49-43.55-33-4.56-1.13-26.96 4.94-29.21 18.22z"/><path d="M171.67 217.08c-2.87 16.94 11.51 36.55 27.58 39 16.87 2.57 34.65-8.48 45.18-24.22-16.28 11.31-37.16-31.49-43.55-33-4.56-1.13-26.96 4.94-29.21 18.22z" stroke-width="22" stroke-linecap="square" stroke="#333" stroke-linejoin="round" fill="#333"/><path d="M171.67 217.08c-2.87 16.94 11.51 36.55 27.58 39 16.87 2.57 34.65-8.48 45.18-24.22-16.28 11.31-37.16-31.49-43.55-33-4.56-1.13-26.96 4.94-29.21 18.22z" stroke-width="5" fill="none" stroke="#333" stroke-linejoin="round"/></g><g id="text"><g class="cls-4"><path class="cls-5" d="M56.59 299.44H41a2 2 0 0 1-1.73-2.09c.74-3.7-.24-14.11-4.12-14.11l1-4.63h2.53c1.23 0 3.26-.12 3.63-1.78l1.48-7.21c.31-1.23-1.41-1.79-2.46-1.79h-5.07L30 297.16a3 3 0 0 1-2.65 2.28H13.4a1.83 1.83 0 0 1-1.79-2.28l6.9-32.41a3 3 0 0 1 2.71-2.28h33.89c4.5 0 7.52 2.65 6.65 6.72l-1.6 7.45c-.86 4.07-5 6.78-9.49 6.72h-.8a8.3 8.3 0 0 1 4.87 2.4 13.59 13.59 0 0 1 2.4 4.32 27.58 27.58 0 0 1 1.86 7.39c.11 1.17-1.12 1.97-2.41 1.97zM98 294.51c-.62 2.71-4.07 4.93-7.76 4.93H67.92c-3.7 0-6.28-2.22-5.67-4.93l4.19-19.72c.56-2.71 4.07-4.92 7.77-4.92h22.3c3.7 0 6.22 2.21 5.67 4.92zm-11.22-16.82c.37-2-.62-3.51-2.35-3.51a4.23 4.23 0 0 0-3.82 3.51l-3 13.93c-.37 2 .61 3.51 2.34 3.51a4.23 4.23 0 0 0 3.82-3.51zM119.24 299.44h-11.15c-3.7 0-6.28-2.22-5.67-4.93l6.41-30.19a2.3 2.3 0 0 1 2.22-1.85h11.09a1.46 1.46 0 0 1 1.48 1.85l-5.86 27.3c-.37 2 .62 3.51 2.35 3.51zM139.64 299.44h-11.16c-3.69 0-6.28-2.22-5.67-4.93l6.41-30.19a2.31 2.31 0 0 1 2.22-1.85h11.09a1.46 1.46 0 0 1 1.48 1.85l-5.85 27.3c-.37 2 .61 3.51 2.34 3.51zM178 294.51c-.62 2.71-4.07 4.93-7.77 4.93h-21.72c-3.7 0-6.29-2.22-5.67-4.93l.74-3.7a2.42 2.42 0 0 1 2.28-1.84h10.78a1.4 1.4 0 0 1 1.42 1.84l-.19.81c-.37 2 .62 3.51 2.34 3.51a4.22 4.22 0 0 0 3.82-3.51c.43-1.85.25-2.84-.24-3.52s-7.4-2-10.72-3c-4.13-1.11-7.77-2.41-6.47-8.38l.43-2c.55-2.71 4.06-4.92 7.76-4.92h21.69c3.7 0 6.22 2.21 5.67 4.92l-.8 3.7a2.43 2.43 0 0 1-2.28 1.85h-10.79a1.4 1.4 0 0 1-1.41-1.85l.18-.8c.37-2-.61-3.51-2.34-3.51a4.23 4.23 0 0 0-3.82 3.51c-.43 1.85-.25 2.9.25 3.51s7.33 1.91 10.72 3c4.06 1.23 7.76 2.4 6.47 8.38zM217.76 294.51c-.62 2.71-4.07 4.93-7.77 4.93h-9.92a6.75 6.75 0 0 1-4.06-1.17l-2 9.3a2.29 2.29 0 0 1-2.21 1.85h-11.13a1.46 1.46 0 0 1-1.48-1.85l7.64-35.86a2.42 2.42 0 0 1 2.28-1.84h11.09l1.11 1.41a9.85 9.85 0 0 1 5.05-1.41h9.92c3.7 0 6.22 2.21 5.67 4.92zm-11.22-16.82c.37-2-.61-3.51-2.34-3.51a4.23 4.23 0 0 0-3.82 3.51l-3 13.93c-.37 2 .62 3.51 2.34 3.51a4.22 4.22 0 0 0 3.82-3.51zM257.93 294.51c-.62 2.71-4.07 4.93-7.77 4.93h-22.3c-3.7 0-6.29-2.22-5.67-4.93l4.19-19.72c.55-2.71 4.07-4.92 7.76-4.92h22.31c3.69 0 6.22 2.21 5.67 4.92l-1.3 5.86c-.55 2.71-4.06 4.93-7.76 4.93h-14.23l-1.3 6c-.37 2 .62 3.51 2.34 3.51a4.34 4.34 0 0 0 3.82-3.39 2.36 2.36 0 0 1 2.22-1.85H257a1.43 1.43 0 0 1 1.48 1.85zm-12.14-12.63l.92-4.19c.37-2-.61-3.51-2.34-3.51a4.23 4.23 0 0 0-3.82 3.51l-.92 4.19zM279.18 299.44H268c-3.7 0-6.29-2.22-5.67-4.93l6.41-30.19a2.3 2.3 0 0 1 2.22-1.85h11.09a1.45 1.45 0 0 1 1.47 1.85l-5.85 27.3c-.37 2 .62 3.51 2.34 3.51zM317.5 294.51c-.61 2.71-4.06 4.93-7.76 4.93h-21.69c-3.7 0-6.28-2.22-5.67-4.93l.74-3.7a2.43 2.43 0 0 1 2.28-1.81h10.78a1.39 1.39 0 0 1 1.42 1.84l-.18.81c-.37 2 .61 3.51 2.34 3.51a4.23 4.23 0 0 0 3.82-3.51c.43-1.85.24-2.84-.25-3.52s-7.39-2-10.72-3c-4.13-1.11-7.76-2.41-6.47-8.38l.43-2c.56-2.71 4.07-4.92 7.77-4.92H316c3.7 0 6.23 2.21 5.67 4.92l-.8 3.7a2.42 2.42 0 0 1-2.28 1.85h-10.76a1.4 1.4 0 0 1-1.42-1.85l.19-.8c.37-2-.62-3.51-2.34-3.51a4.21 4.21 0 0 0-3.82 3.51c-.44 1.85-.25 2.9.24 3.51s7.33 1.91 10.72 3c4.07 1.23 7.77 2.4 6.47 8.38zM356.32 294.51c-.62 2.71-4.07 4.93-7.77 4.93h-21.69c-3.69 0-6.28-2.22-5.66-4.93l.74-3.7a2.42 2.42 0 0 1 2.27-1.84H335a1.4 1.4 0 0 1 1.42 1.84l-.19.81c-.37 2 .62 3.51 2.34 3.51a4.22 4.22 0 0 0 3.82-3.51c.43-1.85.25-2.84-.25-3.52s-7.39-2-10.72-3c-4.12-1.11-7.76-2.41-6.47-8.38l.44-2c.55-2.71 4.06-4.92 7.76-4.92h21.69c3.69 0 6.22 2.21 5.67 4.92l-.8 3.7a2.43 2.43 0 0 1-2.28 1.85h-10.79a1.4 1.4 0 0 1-1.41-1.85l.18-.8c.37-2-.62-3.51-2.34-3.51a4.22 4.22 0 0 0-3.82 3.51c-.43 1.85-.25 2.9.25 3.51s7.33 1.91 10.72 3c4.06 1.23 7.76 2.4 6.47 8.38zM396.12 294.51c-.62 2.71-4.07 4.93-7.77 4.93h-22.3c-3.7 0-6.29-2.22-5.67-4.93l1.17-5.54c.68-3.39 5.05-6.17 9.67-6.17h12.57l1.11-5.11c.37-2-.61-3.51-2.34-3.51a4.22 4.22 0 0 0-3.82 3.51l-.06.19a2.36 2.36 0 0 1-2.22 1.84h-10.29a1.43 1.43 0 0 1-1.48-1.84l.68-3.09c.55-2.71 4-4.92 7.7-4.92h21.57c3.69 0 6.22 2.21 5.67 4.92zm-13.44-30.19a3.07 3.07 0 0 1-2.83 2.34H375a1.81 1.81 0 0 1-1.78-2.34l.55-2.59a3 3 0 0 1 2.77-2.34h4.81a1.86 1.86 0 0 1 1.85 2.34zm-.61 26.49l.92-4.31h-6.16l-1.11 5.12c-.37 2 .62 3.51 2.34 3.51a4.22 4.22 0 0 0 3.82-3.51zm15.34-26.49a3.07 3.07 0 0 1-2.77 2.34h-4.87a1.82 1.82 0 0 1-1.79-2.34l.56-2.59a3 3 0 0 1 2.77-2.34h4.87a1.84 1.84 0 0 1 1.78 2.34zM417.37 299.44h-11.15c-3.7 0-6.29-2.22-5.67-4.93l6.45-30.19a2.29 2.29 0 0 1 2.21-1.85h11.09a1.46 1.46 0 0 1 1.48 1.85l-5.85 27.3c-.37 2 .62 3.51 2.34 3.51zM437.76 299.44h-11.15c-3.7 0-6.29-2.22-5.67-4.93l6.41-30.19a2.3 2.3 0 0 1 2.22-1.85h11.09a1.46 1.46 0 0 1 1.48 1.85l-5.86 27.3c-.37 2 .62 3.51 2.34 3.51zM476.08 294.51c-.61 2.71-4.06 4.93-7.76 4.93h-21.69c-3.7 0-6.28-2.22-5.67-4.93l.74-3.7A2.43 2.43 0 0 1 444 289h10.78a1.39 1.39 0 0 1 1.42 1.84l-.18.81c-.37 2 .61 3.51 2.34 3.51a4.23 4.23 0 0 0 3.82-3.51c.43-1.85.25-2.84-.25-3.52s-7.39-2-10.72-3c-4.13-1.11-7.76-2.41-6.47-8.38l.43-2c.56-2.71 4.07-4.92 7.77-4.92h21.69c3.69 0 6.22 2.21 5.66 4.92l-.8 3.7a2.42 2.42 0 0 1-2.28 1.85h-10.8a1.4 1.4 0 0 1-1.42-1.85l.19-.8c.37-2-.62-3.51-2.34-3.51a4.22 4.22 0 0 0-3.82 3.51c-.44 1.85-.25 2.9.24 3.51s7.33 1.91 10.72 3c4.07 1.23 7.77 2.4 6.47 8.38zM515.21 297.59a2.36 2.36 0 0 1-2.22 1.85H501.9a1.43 1.43 0 0 1-1.48-1.85L502 290c.43-2-.62-3.51-2.34-3.51a4.28 4.28 0 0 0-3.82 3.51l-1.6 7.58a2.36 2.36 0 0 1-2.22 1.85H481a1.43 1.43 0 0 1-1.48-1.85l7.09-33.27a2.29 2.29 0 0 1 2.21-1.85h11.09a1.46 1.46 0 0 1 1.48 1.85l-3.82 17.87h1.42l8.26-11.28a2.43 2.43 0 0 1 1.91-1h10.16a1.41 1.41 0 0 1 1.42 1.84l-.62 2.9a2.29 2.29 0 0 1-2.21 1.85h-5.55c-2 0-3.76.92-6.22 3.63l-1.85 2.1h7.52c3.69 0 6.22 2.22 5.66 4.93zM556.05 294.51c-.61 2.71-4.06 4.93-7.76 4.93H526c-3.7 0-6.29-2.22-5.67-4.93l1.17-5.54c.68-3.39 5-6.17 9.67-6.17h12.57l1.11-5.11c.37-2-.62-3.51-2.34-3.51a4.22 4.22 0 0 0-3.82 3.51l-.06.19a2.36 2.36 0 0 1-2.22 1.84h-10.3a1.43 1.43 0 0 1-1.48-1.84l.68-3.09c.55-2.71 4-4.92 7.7-4.92h21.56c3.7 0 6.23 2.21 5.67 4.92zm-14-3.7l.93-4.31h-6.16l-1.11 5.12c-.37 2 .61 3.51 2.34 3.51a4.22 4.22 0 0 0 3.82-3.51zM596.22 294.51c-.61 2.71-4.06 4.93-7.76 4.93h-9.92a6.8 6.8 0 0 1-4.07-1.17l-2 9.3a2.31 2.31 0 0 1-2.22 1.85h-11.12a1.46 1.46 0 0 1-1.48-1.85l7.64-35.86a2.43 2.43 0 0 1 2.28-1.84h11.09l1.11 1.41a9.88 9.88 0 0 1 5.05-1.41h9.92c3.7 0 6.23 2.21 5.67 4.92zM585 277.69c.37-2-.62-3.51-2.34-3.51a4.22 4.22 0 0 0-3.82 3.51l-3 13.93c-.37 2 .61 3.51 2.34 3.51a4.23 4.23 0 0 0 3.82-3.51zM636.39 294.51c-.62 2.71-4.07 4.93-7.76 4.93h-22.31c-3.69 0-6.28-2.22-5.67-4.93l4.19-19.72c.56-2.71 4.07-4.92 7.77-4.92h22.3c3.7 0 6.23 2.21 5.67 4.92l-1.29 5.86c-.56 2.71-4.07 4.93-7.77 4.93h-14.23l-1.29 6c-.37 2 .61 3.51 2.34 3.51a4.35 4.35 0 0 0 3.82-3.39 2.35 2.35 0 0 1 2.22-1.85h11.09a1.44 1.44 0 0 1 1.48 1.85zm-12.14-12.63l.93-4.19c.37-2-.62-3.51-2.34-3.51a4.21 4.21 0 0 0-3.82 3.51l-.93 4.19zM675.33 294.51c-.62 2.71-4.07 4.93-7.76 4.93h-21.08c-3.69 0-6.28-2.22-5.67-4.93l6-28.47a2.31 2.31 0 0 1 2.22-1.84h11.09a1.46 1.46 0 0 1 1.48 1.84l-.86 3.89h14.05a1.45 1.45 0 0 1 1.47 1.85l-.3 1.47a2.57 2.57 0 0 1-2.28 1.85h-14.01l-3.51 16.52c-.37 2 .61 3.51 2.34 3.51a4.36 4.36 0 0 0 3.82-3.39l2.4-11.4a2.43 2.43 0 0 1 2.28-1.85h9.86a1.4 1.4 0 0 1 1.42 1.85z"/></g><g class="cls-4"><path class="cls-1" d="M53 295.82H37.37a2 2 0 0 1-1.73-2.09c.74-3.7-.24-14.11-4.12-14.11l1-4.63H35c1.23 0 3.26-.12 3.63-1.78l1.51-7.21c.31-1.23-1.41-1.79-2.46-1.79h-5l-6.29 29.33a3 3 0 0 1-2.65 2.28H9.77A1.83 1.83 0 0 1 8 293.54l6.9-32.41a3 3 0 0 1 2.71-2.28h33.87c4.5 0 7.52 2.65 6.65 6.72l-1.6 7.43c-.86 4.07-5 6.78-9.49 6.72h-.8a8.3 8.3 0 0 1 4.87 2.4 13.59 13.59 0 0 1 2.4 4.32 27.58 27.58 0 0 1 1.85 7.39c.12 1.17-1.11 1.99-2.36 1.99zM94.36 290.89c-.62 2.71-4.07 4.93-7.76 4.93H64.29c-3.7 0-6.28-2.22-5.67-4.93l4.19-19.72c.56-2.71 4.07-4.92 7.77-4.92h22.3c3.7 0 6.22 2.21 5.67 4.92zm-11.21-16.82c.37-2-.62-3.51-2.35-3.51a4.23 4.23 0 0 0-3.8 3.51L74 288c-.37 2 .61 3.51 2.34 3.51a4.23 4.23 0 0 0 3.79-3.51zM115.61 295.82h-11.15c-3.7 0-6.28-2.22-5.67-4.93l6.41-30.19a2.3 2.3 0 0 1 2.22-1.85h11.09a1.46 1.46 0 0 1 1.49 1.85l-5.87 27.3c-.37 2 .62 3.51 2.35 3.51zM136 295.82h-11.15c-3.69 0-6.28-2.22-5.67-4.93l6.41-30.19a2.31 2.31 0 0 1 2.22-1.85h11.09a1.46 1.46 0 0 1 1.48 1.85l-5.85 27.3c-.37 2 .61 3.51 2.34 3.51zM174.33 290.89c-.62 2.71-4.07 4.93-7.77 4.93h-21.68c-3.7 0-6.29-2.22-5.67-4.93l.74-3.7a2.42 2.42 0 0 1 2.28-1.84H153a1.4 1.4 0 0 1 1.42 1.84l-.19.81c-.37 2 .62 3.51 2.34 3.51a4.22 4.22 0 0 0 3.83-3.51c.43-1.85.25-2.84-.24-3.52s-7.4-2-10.72-3c-4.13-1.11-7.77-2.41-6.47-8.38l.43-2c.55-2.71 4.06-4.92 7.76-4.92h21.69c3.7 0 6.22 2.21 5.67 4.92l-.8 3.7a2.43 2.43 0 0 1-2.28 1.85h-10.79a1.4 1.4 0 0 1-1.41-1.85l.18-.8c.37-2-.61-3.51-2.34-3.51a4.23 4.23 0 0 0-3.82 3.51c-.43 1.85-.25 2.9.25 3.51s7.33 1.91 10.72 3c4.06 1.23 7.76 2.4 6.47 8.38zM214.13 290.89c-.62 2.71-4.07 4.93-7.77 4.93h-9.92a6.75 6.75 0 0 1-4.06-1.17l-2 9.3a2.29 2.29 0 0 1-2.21 1.85H177a1.46 1.46 0 0 1-1.48-1.85l7.64-35.86a2.42 2.42 0 0 1 2.28-1.84h11.09l1.11 1.41a9.85 9.85 0 0 1 5-1.41h9.92c3.7 0 6.22 2.21 5.67 4.92zm-11.22-16.82c.37-2-.61-3.51-2.34-3.51a4.23 4.23 0 0 0-3.82 3.51l-3 13.93c-.37 2 .62 3.51 2.34 3.51a4.22 4.22 0 0 0 3.82-3.51zM254.3 290.89c-.62 2.71-4.07 4.93-7.77 4.93h-22.3c-3.7 0-6.29-2.22-5.67-4.93l4.19-19.72c.55-2.71 4.07-4.92 7.76-4.92h22.31c3.69 0 6.22 2.21 5.67 4.92l-1.3 5.86c-.55 2.71-4.06 4.93-7.76 4.93H235.2l-1.3 6c-.37 2 .62 3.51 2.34 3.51a4.34 4.34 0 0 0 3.82-3.39 2.36 2.36 0 0 1 2.22-1.85h11.09a1.43 1.43 0 0 1 1.48 1.85zm-12.14-12.63l.92-4.19c.37-2-.61-3.51-2.34-3.51a4.23 4.23 0 0 0-3.82 3.51l-.92 4.19zM275.55 295.82H264.4c-3.7 0-6.29-2.22-5.67-4.93l6.41-30.19a2.3 2.3 0 0 1 2.22-1.85h11.09a1.45 1.45 0 0 1 1.47 1.85l-5.85 27.3c-.37 2 .62 3.51 2.34 3.51zM313.87 290.89c-.61 2.71-4.06 4.93-7.76 4.93h-21.69c-3.7 0-6.28-2.22-5.67-4.93l.74-3.7a2.43 2.43 0 0 1 2.28-1.84h10.78a1.39 1.39 0 0 1 1.42 1.84l-.18.81c-.37 2 .61 3.51 2.34 3.51A4.23 4.23 0 0 0 300 288c.43-1.85.24-2.84-.25-3.52s-7.39-2-10.72-3c-4.13-1.11-7.76-2.41-6.47-8.38l.43-2c.56-2.71 4.07-4.92 7.77-4.92h21.68c3.7 0 6.23 2.21 5.67 4.92l-.8 3.7a2.42 2.42 0 0 1-2.28 1.85H304.2a1.4 1.4 0 0 1-1.42-1.85l.19-.8c.37-2-.62-3.51-2.34-3.51a4.21 4.21 0 0 0-3.82 3.51c-.44 1.85-.25 2.9.24 3.51s7.33 1.91 10.72 3c4.07 1.23 7.77 2.4 6.47 8.38zM352.69 290.89c-.62 2.71-4.07 4.93-7.77 4.93h-21.69c-3.69 0-6.28-2.22-5.66-4.93l.74-3.7a2.42 2.42 0 0 1 2.27-1.84h10.79a1.4 1.4 0 0 1 1.42 1.84l-.19.81c-.37 2 .62 3.51 2.34 3.51a4.22 4.22 0 0 0 3.82-3.51c.43-1.85.25-2.84-.25-3.52s-7.39-2-10.72-3c-4.12-1.11-7.76-2.41-6.47-8.38l.44-2c.55-2.71 4.06-4.92 7.76-4.92h21.69c3.69 0 6.22 2.21 5.67 4.92l-.8 3.7a2.43 2.43 0 0 1-2.28 1.85H343a1.4 1.4 0 0 1-1.41-1.85l.18-.8c.37-2-.62-3.51-2.34-3.51a4.22 4.22 0 0 0-3.82 3.51c-.43 1.85-.25 2.9.25 3.51s7.33 1.91 10.72 3c4.06 1.23 7.76 2.4 6.47 8.38zM392.49 290.89c-.62 2.71-4.07 4.93-7.77 4.93h-22.3c-3.7 0-6.29-2.22-5.67-4.93l1.17-5.54c.68-3.39 5.05-6.17 9.67-6.17h12.57l1.11-5.11c.37-2-.61-3.51-2.34-3.51a4.23 4.23 0 0 0-3.82 3.51l-.06.18a2.36 2.36 0 0 1-2.22 1.85h-10.29a1.44 1.44 0 0 1-1.48-1.85l.68-3.08c.55-2.71 4-4.92 7.7-4.92H391c3.69 0 6.22 2.21 5.67 4.92zm-13.44-30.19a3.07 3.07 0 0 1-2.83 2.34h-4.81a1.81 1.81 0 0 1-1.78-2.34l.55-2.59a3 3 0 0 1 2.77-2.34h4.81a1.86 1.86 0 0 1 1.85 2.34zm-.61 26.49l.92-4.31h-6.16l-1.11 5.12c-.37 2 .62 3.51 2.34 3.51a4.22 4.22 0 0 0 3.82-3.51zm15.34-26.49A3.07 3.07 0 0 1 391 263h-4.87a1.82 1.82 0 0 1-1.79-2.34l.56-2.59a3 3 0 0 1 2.77-2.34h4.87a1.84 1.84 0 0 1 1.78 2.34zM413.74 295.82h-11.15c-3.7 0-6.29-2.22-5.67-4.93l6.41-30.19a2.29 2.29 0 0 1 2.21-1.85h11.09a1.46 1.46 0 0 1 1.48 1.85l-5.85 27.3c-.37 2 .62 3.51 2.34 3.51zM434.13 295.82H423c-3.7 0-6.29-2.22-5.67-4.93l6.41-30.19a2.3 2.3 0 0 1 2.22-1.85H437a1.46 1.46 0 0 1 1.48 1.85l-5.83 27.3c-.37 2 .62 3.51 2.34 3.51zM472.45 290.89c-.61 2.71-4.06 4.93-7.76 4.93H443c-3.7 0-6.28-2.22-5.67-4.93l.74-3.7a2.43 2.43 0 0 1 2.28-1.84h10.78a1.39 1.39 0 0 1 1.42 1.84l-.18.81c-.37 2 .61 3.51 2.34 3.51a4.23 4.23 0 0 0 3.82-3.51c.43-1.85.25-2.84-.25-3.52s-7.39-2-10.72-3c-4.13-1.11-7.76-2.41-6.47-8.38l.43-2c.56-2.71 4.07-4.92 7.77-4.92H471c3.69 0 6.22 2.21 5.66 4.92l-.8 3.7a2.42 2.42 0 0 1-2.28 1.85h-10.8a1.4 1.4 0 0 1-1.42-1.85l.19-.8c.37-2-.62-3.51-2.34-3.51a4.22 4.22 0 0 0-3.82 3.51c-.43 1.85-.25 2.9.24 3.51s7.33 1.91 10.72 3c4.07 1.23 7.77 2.4 6.47 8.38zM511.58 294a2.36 2.36 0 0 1-2.22 1.85h-11.09a1.43 1.43 0 0 1-1.48-1.85l1.6-7.58c.43-2-.62-3.51-2.34-3.51a4.28 4.28 0 0 0-3.82 3.51l-1.6 7.58a2.36 2.36 0 0 1-2.22 1.85h-11.09a1.43 1.43 0 0 1-1.48-1.85l7.09-33.27a2.29 2.29 0 0 1 2.21-1.85h11.09a1.46 1.46 0 0 1 1.48 1.85l-3.82 17.87h1.42l8.26-11.28a2.43 2.43 0 0 1 1.91-1h10.16a1.41 1.41 0 0 1 1.42 1.84l-.62 2.9a2.29 2.29 0 0 1-2.21 1.85h-5.55c-2 0-3.76.92-6.22 3.63l-1.85 2.1h7.52c3.69 0 6.22 2.22 5.66 4.93zM552.42 290.89c-.61 2.71-4.06 4.93-7.76 4.93h-22.3c-3.7 0-6.29-2.22-5.67-4.93l1.17-5.54c.68-3.39 5-6.17 9.67-6.17h12.57l1.11-5.11c.37-2-.62-3.51-2.34-3.51a4.22 4.22 0 0 0-3.82 3.51l-.06.18a2.36 2.36 0 0 1-2.22 1.85h-10.29a1.43 1.43 0 0 1-1.48-1.85l.68-3.08c.55-2.71 4-4.92 7.7-4.92h21.56c3.7 0 6.23 2.21 5.67 4.92zm-14-3.7l.92-4.31h-6.16L532 288c-.37 2 .61 3.51 2.34 3.51a4.22 4.22 0 0 0 3.82-3.51zM592.59 290.89c-.61 2.71-4.06 4.93-7.76 4.93h-9.92a6.8 6.8 0 0 1-4.07-1.17l-2 9.3a2.31 2.31 0 0 1-2.22 1.85H555.5a1.46 1.46 0 0 1-1.5-1.8l7.64-35.86a2.43 2.43 0 0 1 2.28-1.84H575l1.11 1.41a9.88 9.88 0 0 1 5.05-1.41h9.92c3.7 0 6.23 2.21 5.67 4.92zm-11.21-16.82c.37-2-.62-3.51-2.34-3.51a4.22 4.22 0 0 0-3.82 3.51l-3 13.93c-.37 2 .61 3.51 2.34 3.51a4.23 4.23 0 0 0 3.82-3.51zM632.76 290.89c-.62 2.71-4.07 4.93-7.76 4.93h-22.31c-3.69 0-6.28-2.22-5.67-4.93l4.19-19.72c.56-2.71 4.07-4.92 7.77-4.92h22.3c3.7 0 6.23 2.21 5.67 4.92l-1.29 5.83c-.56 2.71-4.07 4.93-7.77 4.93h-14.23l-1.29 6c-.37 2 .61 3.51 2.34 3.51a4.35 4.35 0 0 0 3.82-3.39 2.35 2.35 0 0 1 2.22-1.85h11.09a1.44 1.44 0 0 1 1.48 1.85zm-12.14-12.63l.93-4.19c.37-2-.62-3.51-2.34-3.51a4.21 4.21 0 0 0-3.82 3.51l-.93 4.19zM671.7 290.89c-.62 2.71-4.07 4.93-7.76 4.93h-21.08c-3.69 0-6.28-2.22-5.67-4.93l6-28.47a2.31 2.31 0 0 1 2.22-1.84h11.09a1.45 1.45 0 0 1 1.48 1.84l-.86 3.89h14.05a1.45 1.45 0 0 1 1.47 1.85l-.3 1.47a2.57 2.57 0 0 1-2.28 1.85h-14.01L652.54 288c-.37 2 .61 3.51 2.34 3.51a4.35 4.35 0 0 0 3.82-3.39l2.4-11.4a2.43 2.43 0 0 1 2.28-1.85h9.86a1.4 1.4 0 0 1 1.42 1.85z"/></g><g class="cls-4"><path class="cls-6" d="M289.84 106.28c6.82.36 11.63 4.84 14 15.34 1.8 7.74 2.93 18.07 7.63 16.75 6.34-1.79 10.39-16.24 11.44-25.15.62-5 3.09-5.69 2.34-.66-1.39 9-3.43 27.46-12.73 31.34-11 4.62-18-4.56-19.84-19.14-1.73-13.84-8.28-15.92-20.51-8.93 1.26 26.13-4.82 41.92-20.08 44.44-13.44 2.25-17.33-11.1-10.42-18.12 1.58-1.58 5-2 6-1.18-4.55 2.29-3.11 11.91 2.36 10.62 8.67-2.06 10.82-14.71 10.36-32.58-.85-26.89.33-39.39 10.2-42.17 3.75-1 6.57-.07 8 1.31-7 3.61-7.67 10.15-6.59 32.91a132.59 132.59 0 0 0 13.76-7.42c9-5.94 11.77-13.58 10.44-19.67-5.35-24-63.33-13.75-58.56 13.56 1.44 7.83 9.29 11.84 15.35 8.61 2.8 3.65 1.78 11.29-5.45 13.07-6.26 1.63-15.07-3.11-17.25-14.92C223.47 66.37 297.28 46.63 308 79c3.18 9.5-2.78 19.41-12.17 24.34.03-.02-2.54 1.21-5.99 2.94z"/><path class="cls-6" d="M347.67 80.63a13.21 13.21 0 0 1 3.55 0c8.84 1.69 11.22 16 8.45 29.57a12.21 12.21 0 0 0 9.71-10.09c.74-5 3.09-5.68 2.35-.66-.93 5.72-2.78 16.25-13.8 17.2-3.65 10.91-10.88 19.92-20.68 18.87-20.88-2.11-18.32-54.31 1.73-57.41a11.56 11.56 0 0 1 8.69 2.52zm-7.58 8.22c-10.58 12-9.13 42.37 1.84 40.81 5.37-.75 9.27-6.28 11.76-13.2-11.88-2.11-16.36-17.58-13.6-27.61zm15.3 21.05c2.31-11.17 1.07-23.25-3.64-24.21-9.14-1.86-6.27 20.53 3.64 24.21z"/><path class="cls-6" d="M379.62 84.7c-.14 18.43 3.12 32.72 8.17 31.3 5.4-1.52 10.19-16.94 11.08-24.16.4-3.54 2.82-4.85 2.35-.66-.89 7.22-3.79 28.45-13.54 31.19-15.74 4.43-21.93-23.88-19.1-56.62 3.76-43.91 33.43-52 22.22-13.86-4.09 13.83-9.15 27.42-11.18 32.81zm.27-9.84c2.11-6 4.27-13.24 6.22-20.25 7.39-26.93-1.51-27.47-4.62 2.94l-1.44 15.62z"/><path class="cls-6" d="M409.11 76.41c-.15 18.42 3.11 32.72 8.17 31.3 5.4-1.52 10.19-16.94 11.08-24.16.4-3.54 2.82-4.85 2.35-.66-.89 7.22-3.79 28.44-13.54 31.19-15.75 4.42-21.93-23.88-19.1-56.62 3.75-43.91 33.43-52 22.22-13.86-4.1 13.83-9.15 27.4-11.18 32.81zm.27-9.84c2.11-6 4.26-13.24 6.22-20.26 7.39-26.92-1.51-27.46-4.62 2.95l-1.44 15.62z"/><path class="cls-6" d="M457.71 87.84a13.46 13.46 0 0 1 .42 3.31c3.52-5.05 5.36-11.15 6.29-17.75.49-3.68 2.89-4.61 2.35-.66-1.24 9.1-4.21 21.09-12.91 28.48-5 4.82-13.13 6.48-18.36 2.76s-8.9-10.43-7.09-20.7a161.15 161.15 0 0 1 4.48-18.76c5.15-16.4 19.36-21.79 15.54-8.3-4.27 15.02 6.24 19.93 9.28 31.62zm-21.94-22.1c-2 8.68-7.1 21.65-2.42 30.6 4 7.88 14.6 7.3 15.57-.07 1.4-9.9-14.33-21.2-13.15-30.53z"/><path class="cls-6" d="M473.61 57.38c9.53-3.06 19.06 7.83 19.08 19.61.06 14.18-1.41 36-101.09 70.14s-130.27 56.54-151.49 84.31c-6.79-31.81-42.62-34.79-63.16-17.22 1.11-4.62 10-24.25 60.22-42.8 56.16-20.74 212.67-50.69 238.44-70.86 23-18 11.61-44.35-1.66-40.61-3.05.86-6.34 5-7.18 12.79-.38 4-3.14 5.07-2.35.66 1.34-7.85 3.5-14.16 9.19-16.02z"/></g><g class="cls-4"><path class="cls-5" d="M289.84 106.28c6.82.36 11.63 4.84 14 15.34 1.8 7.74 2.93 18.07 7.63 16.75 6.34-1.79 10.39-16.24 11.44-25.15.62-5 3.09-5.69 2.34-.66-1.39 9-3.43 27.46-12.73 31.34-11 4.62-18-4.56-19.84-19.14-1.73-13.84-8.28-15.92-20.51-8.93 1.26 26.13-4.82 41.92-20.08 44.44-13.44 2.25-17.33-11.1-10.42-18.12 1.58-1.58 5-2 6-1.18-4.55 2.29-3.11 11.91 2.36 10.62 8.67-2.06 10.82-14.71 10.36-32.58-.85-26.89.33-39.39 10.2-42.17 3.75-1 6.57-.07 8 1.31-7 3.61-7.67 10.15-6.59 32.91a132.59 132.59 0 0 0 13.76-7.42c9-5.94 11.77-13.58 10.44-19.67-5.35-24-63.33-13.75-58.56 13.56 1.44 7.83 9.29 11.84 15.35 8.61 2.8 3.65 1.78 11.29-5.45 13.07-6.26 1.63-15.07-3.11-17.25-14.92C223.47 66.37 297.28 46.63 308 79c3.18 9.5-2.78 19.41-12.17 24.34.03-.02-2.54 1.21-5.99 2.94z"/><path class="cls-5" d="M347.67 80.63a13.21 13.21 0 0 1 3.55 0c8.84 1.69 11.22 16 8.45 29.57a12.21 12.21 0 0 0 9.71-10.09c.74-5 3.09-5.68 2.35-.66-.93 5.72-2.78 16.25-13.8 17.2-3.65 10.91-10.88 19.92-20.68 18.87-20.88-2.11-18.32-54.31 1.73-57.41a11.56 11.56 0 0 1 8.69 2.52zm-7.58 8.22c-10.58 12-9.13 42.37 1.84 40.81 5.37-.75 9.27-6.28 11.76-13.2-11.88-2.11-16.36-17.58-13.6-27.61zm15.3 21.05c2.31-11.17 1.07-23.25-3.64-24.21-9.14-1.86-6.27 20.53 3.64 24.21z"/><path class="cls-5" d="M379.62 84.7c-.14 18.43 3.12 32.72 8.17 31.3 5.4-1.52 10.19-16.94 11.08-24.16.4-3.54 2.82-4.85 2.35-.66-.89 7.22-3.79 28.45-13.54 31.19-15.74 4.43-21.93-23.88-19.1-56.62 3.76-43.91 33.43-52 22.22-13.86-4.09 13.83-9.15 27.42-11.18 32.81zm.27-9.84c2.11-6 4.27-13.24 6.22-20.25 7.39-26.93-1.51-27.47-4.62 2.94l-1.44 15.62z"/><path class="cls-5" d="M409.11 76.41c-.15 18.42 3.11 32.72 8.17 31.3 5.4-1.52 10.19-16.94 11.08-24.16.4-3.54 2.82-4.85 2.35-.66-.89 7.22-3.79 28.44-13.54 31.19-15.75 4.42-21.93-23.88-19.1-56.62 3.75-43.91 33.43-52 22.22-13.86-4.1 13.83-9.15 27.4-11.18 32.81zm.27-9.84c2.11-6 4.26-13.24 6.22-20.26 7.39-26.92-1.51-27.46-4.62 2.95l-1.44 15.62z"/><path class="cls-5" d="M457.71 87.84a13.46 13.46 0 0 1 .42 3.31c3.52-5.05 5.36-11.15 6.29-17.75.49-3.68 2.89-4.61 2.35-.66-1.24 9.1-4.21 21.09-12.91 28.48-5 4.82-13.13 6.48-18.36 2.76s-8.9-10.43-7.09-20.7a161.15 161.15 0 0 1 4.48-18.76c5.15-16.4 19.36-21.79 15.54-8.3-4.27 15.02 6.24 19.93 9.28 31.62zm-21.94-22.1c-2 8.68-7.1 21.65-2.42 30.6 4 7.88 14.6 7.3 15.57-.07 1.4-9.9-14.33-21.2-13.15-30.53z"/><path class="cls-5" d="M473.61 57.38c9.53-3.06 19.06 7.83 19.08 19.61.06 14.18-1.41 36-101.09 70.14s-130.27 56.54-151.49 84.31c-6.79-31.81-42.62-34.79-63.16-17.22 1.11-4.62 10-24.25 60.22-42.8 56.16-20.74 212.67-50.69 238.44-70.86 23-18 11.61-44.35-1.66-40.61-3.05.86-6.34 5-7.18 12.79-.38 4-3.14 5.07-2.35.66 1.34-7.85 3.5-14.16 9.19-16.02z"/></g><g class="cls-4"><path class="cls-1" d="M289.84 106.28c6.82.36 11.63 4.84 14 15.34 1.8 7.74 2.93 18.07 7.63 16.75 6.34-1.79 10.39-16.24 11.44-25.15.62-5 3.09-5.69 2.34-.66-1.39 9-3.43 27.46-12.73 31.34-11 4.62-18-4.56-19.84-19.14-1.73-13.84-8.28-15.92-20.51-8.93 1.26 26.13-4.82 41.92-20.08 44.44-13.44 2.25-17.33-11.1-10.42-18.12 1.58-1.58 5-2 6-1.18-4.55 2.29-3.11 11.91 2.36 10.62 8.67-2.06 10.82-14.71 10.36-32.58-.85-26.89.33-39.39 10.2-42.17 3.75-1 6.57-.07 8 1.31-7 3.61-7.67 10.15-6.59 32.91a132.59 132.59 0 0 0 13.76-7.42c9-5.94 11.77-13.58 10.44-19.67-5.35-24-63.33-13.75-58.56 13.56 1.44 7.83 9.29 11.84 15.35 8.61 2.8 3.65 1.78 11.29-5.45 13.07-6.26 1.63-15.07-3.11-17.25-14.92C223.47 66.37 297.28 46.63 308 79c3.18 9.5-2.78 19.41-12.17 24.34.03-.02-2.54 1.21-5.99 2.94z"/><path class="cls-1" d="M347.67 80.63a13.21 13.21 0 0 1 3.55 0c8.84 1.69 11.22 16 8.45 29.57a12.21 12.21 0 0 0 9.71-10.09c.74-5 3.09-5.68 2.35-.66-.93 5.72-2.78 16.25-13.8 17.2-3.65 10.91-10.88 19.92-20.68 18.87-20.88-2.11-18.32-54.31 1.73-57.41a11.56 11.56 0 0 1 8.69 2.52zm-7.58 8.22c-10.58 12-9.13 42.37 1.84 40.81 5.37-.75 9.27-6.28 11.76-13.2-11.88-2.11-16.36-17.58-13.6-27.61zm15.3 21.05c2.31-11.17 1.07-23.25-3.64-24.21-9.14-1.86-6.27 20.53 3.64 24.21z"/><path class="cls-1" d="M379.62 84.7c-.14 18.43 3.12 32.72 8.17 31.3 5.4-1.52 10.19-16.94 11.08-24.16.4-3.54 2.82-4.85 2.35-.66-.89 7.22-3.79 28.45-13.54 31.19-15.74 4.43-21.93-23.88-19.1-56.62 3.76-43.91 33.43-52 22.22-13.86-4.09 13.83-9.15 27.42-11.18 32.81zm.27-9.84c2.11-6 4.27-13.24 6.22-20.25 7.39-26.93-1.51-27.47-4.62 2.94l-1.44 15.62z"/><path class="cls-1" d="M409.11 76.41c-.15 18.42 3.11 32.72 8.17 31.3 5.4-1.52 10.19-16.94 11.08-24.16.4-3.54 2.82-4.85 2.35-.66-.89 7.22-3.79 28.44-13.54 31.19-15.75 4.42-21.93-23.88-19.1-56.62 3.75-43.91 33.43-52 22.22-13.86-4.1 13.83-9.15 27.4-11.18 32.81zm.27-9.84c2.11-6 4.26-13.24 6.22-20.26 7.39-26.92-1.51-27.46-4.62 2.95l-1.44 15.62z"/><path class="cls-1" d="M457.71 87.84a13.46 13.46 0 0 1 .42 3.31c3.52-5.05 5.36-11.15 6.29-17.75.49-3.68 2.89-4.61 2.35-.66-1.24 9.1-4.21 21.09-12.91 28.48-5 4.82-13.13 6.48-18.36 2.76s-8.9-10.43-7.09-20.7a161.15 161.15 0 0 1 4.48-18.76c5.15-16.4 19.36-21.79 15.54-8.3-4.27 15.02 6.24 19.93 9.28 31.62zm-21.94-22.1c-2 8.68-7.1 21.65-2.42 30.6 4 7.88 14.6 7.3 15.57-.07 1.4-9.9-14.33-21.2-13.15-30.53z"/><path class="cls-1" d="M473.61 57.38c9.53-3.06 19.06 7.83 19.08 19.61.06 14.18-1.41 36-101.09 70.14s-130.27 56.54-151.49 84.31c-6.79-31.81-42.62-34.79-63.16-17.22 1.11-4.62 10-24.25 60.22-42.8 56.16-20.74 212.67-50.69 238.44-70.86 23-18 11.61-44.35-1.66-40.61-3.05.86-6.34 5-7.18 12.79-.38 4-3.14 5.07-2.35.66 1.34-7.85 3.5-14.16 9.19-16.02z"/></g></g><g id="d20"><path d="M176.29 249.09l35.24 13.07a1.88 1.88 0 0 0 1.68-.29l29.45-24.49a1.87 1.87 0 0 0 .59-1.61l-6.44-36.51a1.87 1.87 0 0 0-1.12-1.32l-35.94-12.24a1.93 1.93 0 0 0-1.63.3l-28.77 23.63a1.88 1.88 0 0 0-.59 1.61l6.44 36.55a1.92 1.92 0 0 0 1.09 1.3z" stroke-width="4" stroke="#333" stroke-linejoin="round" fill="#ef3c23"/><path class="cls-8" d="M199.36 188.27l1.75 9.92a1.76 1.76 0 0 1-1.11 1.91l-22.83 7.4c-4.7 1.52-5.42.2-1.6-2.94l21.07-17.31c1.2-1.02 2.44-.56 2.72 1.02z"/><path class="cls-8" d="M227.48 198.62l-24.63 1a1.75 1.75 0 0 1-1.74-1.41l-1.76-10c-.27-1.56.73-2.41 2.23-1.9l26.39 9c4.77 1.63 4.55 3.12-.49 3.31zM187.05 240.76l-9 6.13c-1.5 1-1.33 2.37.37 3l26 9.63c4.42 1.64 5.2.36 1.75-2.84l-17-15.76a1.79 1.79 0 0 0-2.12-.16zM229.69 233.23l10.51 2.69c1.77.45 2.07 1.79.66 3l-21.66 18c-3.71 3.08-4.88 2.13-2.58-2.12l11.15-20.7a1.8 1.8 0 0 1 1.92-.87z"/><path class="cls-8" d="M234.74 206.27l-6 25a1.72 1.72 0 0 0 1.23 2l10.85 2.77a1.58 1.58 0 0 0 2.1-1.94l-4.9-27.78c-.74-4.41-2.24-4.45-3.28-.05zM173.11 217.13l14.14 21.47a1.71 1.71 0 0 1-.46 2.34l-9.24 6.32a1.58 1.58 0 0 1-2.64-1.11L170 218.37c-.77-4.46.62-5.01 3.11-1.24z"/><path class="cls-8" d="M198.18 200.68l-27.47 8.9a1.61 1.61 0 0 0-.89 2.55l16.41 24.92c1.07 1.62 2.44 1.43 3-.41l11.06-33.82c.61-1.74-.36-2.71-2.11-2.14zM234.4 198.35l-29.63 1.16c-1.87.08-2.44 1.32-1.26 2.78l22.71 27.93c1.2 1.47 2.54 1.17 3-.68l6.92-29.09a1.62 1.62 0 0 0-1.74-2.1zM213.49 260.57L226.73 236c.92-1.7.11-2.82-1.79-2.48l-33.39 5.89c-1.86.33-2.25 1.64-.86 2.92L210.84 261a1.62 1.62 0 0 0 2.65-.43z"/><path class="cls-8" d="M199.43 205.58l-9.49 29c-1 3 .75 5 3.82 4.41l28.94-5.1c3.13-.56 4.06-3 2.05-5.5l-19.45-23.9c-2.16-2.67-4.81-2.18-5.87 1.09z"/></g></svg>